<?xml version="1.0" encoding="UTF-8" standalone="no"?>
<svg xmlns:rdf="http://www.w3.org/1999/02/22-rdf-syntax-ns#" xmlns="http://www.w3.org/2000/svg" xml:space="preserve" height="390" viewBox="0 0 30 390" width="30" version="1.1" xmlns:cc="http://creativecommons.org/ns#" xmlns:dc="http://purl.org/dc/elements/1.1/"><defs><clipPath id="f" clipPathUnits="userSpaceOnUse"><path d="m0 288h24v24h-24v-24z"/></clipPath><clipPath id="e" clipPathUnits="userSpaceOnUse"><path d="m0 312h24v-24h-24v24z"/></clipPath><clipPath id="d" clipPathUnits="userSpaceOnUse"><path d="m0 312h24v-312h-24v312z"/></clipPath><clipPath id="c" clipPathUnits="userSpaceOnUse"><path d="m-12 12h24v-24h-24v24z"/></clipPath><clipPath id="b" clipPathUnits="userSpaceOnUse"><path d="m0 264h24v-24h-24v24z"/></clipPath><clipPath id="a" clipPathUnits="userSpaceOnUse"><path d="m-12 12h24v-24h-24v24z"/></clipPath></defs><g transform="matrix(1.25,0,0,-1.25,0,390)"><g clip-path="url(#f)"><g opacity=".5" clip-path="url(#e)"><path d="m3 304h18v2h-18v-2zm0-5h18v2h-18v-2zm0-5h18v2h-18v-2z" fill="#020202"/></g></g><g clip-path="url(#d)"><g transform="matrix(1,0,0,-1,12,276)"><g clip-path="url(#c)"><g transform="translate(8,-1)"><path d="m0 0h-12.2l5.6-5.6-1.4-1.4-8 8 8 8 1.4-1.4-5.6-5.6h12.2v-2z" fill="#fff"/></g></g></g><g clip-path="url(#b)"><g transform="matrix(-1,0,0,1,12,252)"><g clip-path="url(#a)"><g transform="translate(8,-1)"><path d="m0 0h-12.2l5.6-5.6-1.4-1.4-8 8 8 8 1.4-1.4-5.6-5.6h12.2v-2z" fill="#fff"/></g></g></g></g></g><g transform="translate(19.501 228)"><path d="m0 0-12.004 12-2.998-3.002 9.002-8.998-9.002-8.998 2.998-3.002 12.004 12z" fill="#fff"/></g><g><path d="m0 192h24v8h-24v-8z" fill="#ff0"/><path d="m0 208h24v8h-24v-8z"/><path d="m0 200h24v8h-24v-8z" fill="#ff000d"/><path d="m0.002 96h23.996v23.999h-23.996v-23.999z" fill="#ff0013"/><path d="m0 102h24v12.001h-24v-12z" fill="#ff0"/><path d="m0 24h24v23.999h-24v-23.999z" fill="#fff"/><path d="m0 24h8v23.999h-8v-23.999z" fill="#00f"/><path d="m16 24h8v23.999h-8v-23.999z" fill="#ff0025"/><path d="m0 120h24v24h-24v-24z" fill="#fff"/><path d="m0 120h8v24h-8v-24z" fill="#02ac06"/><path d="m16 120h7.999v24h-7.999v-24z" fill="#f00"/><path d="m0 72.105h24v23.895h-24v-23.895z" fill="#fff"/><path d="m0 72h24v7.965h-24v-7.965z" fill="#0062ff"/><path d="m0 88.035h24v7.965h-24v-7.965z" fill="#f00"/><path d="m9.023 48h14.977v24h-14.977v-24z" fill="#f00"/><path d="m0 48h9.023v24h-9.023v-24z" fill="#02ac06"/><path d="m0 168h24v23.999h-24v-24z" fill="#fff"/><path d="m0 168h24v15.999h-24v-16z" fill="#00f"/></g><g fill="#f00"><path d="m0 168h24v8h-24v-8z"/><path d="m0 166.15h24v1.846h-24v-1.846z"/><path d="m0 162.46h24v1.846h-24v-1.846z"/><path d="m0 158.77h24v1.847h-24v-1.847z"/><path d="m0 155.08h24v1.846h-24v-1.846z"/><path d="m0 151.38h24v1.847h-24v-1.847z"/><path d="m0 147.69h24v1.846h-24v-1.846z"/><path d="m0 144h24v1.846h-24v-1.85z"/></g><g fill="#fff"><path d="m0 164.31h24v1.847h-24v-1.847z"/><path d="m0 160.62h24v1.846h-24v-1.846z"/><path d="m0 156.92h24v1.846h-24v-1.846z"/><path d="m0 153.23h24v1.846h-24v-1.846z"/><path d="m0 149.54h24v1.846h-24v-1.846z"/><path d="m0 145.85h24v1.847h-24v-1.847z"/></g><path d="m0 155.08h17v12.923h-17v-12.923z" fill="#00f"/><g fill="#fff"><path d="m15 165h-14v2h14v-2z"/><path d="m15 161h-14v2h14v-2z"/><path d="m15 157h-14v2h14v-2z"/></g><g fill="#00f"><path d="m5 157h-2v10h2v-10z"/><path d="m9 157h-2v10h2v-10z"/><path d="m13 157h-2v10h2v-10z"/></g><path d="m0 0h24v24h-24v-24z" fill="#fff"/><path d="m0 0h24v12.001h-24v-12.001z" fill="#dc143c"/></g></svg>
